<svg width="92" height="92" viewBox="0 0 92 92" fill="none" xmlns="http://www.w3.org/2000/svg">
<mask id="mask0_5_4587" style="mask-type:alpha" maskUnits="userSpaceOnUse" x="0" y="0" width="92" height="92">
<path d="M46 92C71.4051 92 92 71.4051 92 46C92 20.5949 71.4051 0 46 0C20.5949 0 0 20.5949 0 46C0 71.4051 20.5949 92 46 92Z" fill="#5F4279"/>
</mask>
<g mask="url(#mask0_5_4587)">
<path d="M34.1601 64.7708L23.1073 63.6014L18.4433 52.8501L14.8102 53.8103C14.8102 53.8103 17.4954 65.171 20.4968 66.9312C23.4981 68.6914 33.7653 69.0113 33.7653 69.0113L34.1601 64.7708Z" fill="white"/>
<path d="M40.035 70.224C41.8315 68.1762 41.6491 65.0409 39.6276 63.221C37.606 61.4011 34.5109 61.5859 32.7143 63.6337C30.9178 65.6815 31.1002 68.8169 33.1217 70.6367C35.1433 72.4566 38.2385 72.2718 40.035 70.224Z" fill="#252525"/>
<path d="M36.3712 71.898C35.0614 71.898 33.8302 71.3813 32.9041 70.4432C31.978 69.5053 31.4679 68.2581 31.4679 66.931C31.4679 65.6039 31.978 64.357 32.9041 63.4189C33.8302 62.4807 35.0614 61.9637 36.3712 61.9637C37.6811 61.9637 38.9123 62.4805 39.8384 63.4189C40.7645 64.3567 41.2743 65.6042 41.2743 66.931C41.2743 68.2576 40.7642 69.5051 39.8384 70.4432C38.9123 71.3813 37.6811 71.898 36.3712 71.898ZM36.3712 61.9776C35.0651 61.9776 33.837 62.4927 32.9133 63.4284C31.9898 64.3639 31.481 65.6079 31.481 66.931C31.481 68.2542 31.9895 69.4982 32.9133 70.4336C33.837 71.3694 35.0651 71.8845 36.3712 71.8845C37.6774 71.8845 38.9055 71.3694 39.8289 70.4336C40.7527 69.4982 41.2612 68.2542 41.2612 66.931C41.2612 65.6079 40.7527 64.3639 39.8289 63.4284C38.9055 62.4927 37.6774 61.9776 36.3712 61.9776Z" fill="#252525"/>
<path d="M22.1283 67.7861C24.1007 67.3065 25.3158 65.2981 24.8424 63.3001C24.369 61.3021 22.3863 60.0712 20.4139 60.5507C18.4416 61.0303 17.2264 63.0388 17.6999 65.0367C18.1733 67.0347 20.156 68.2656 22.1283 67.7861Z" fill="#252525"/>
<path d="M18.483 53.7215C19.6548 52.5345 19.6548 50.61 18.483 49.423C17.3112 48.236 15.4114 48.236 14.2396 49.423C13.0678 50.61 13.0678 52.5345 14.2396 53.7215C15.4114 54.9085 17.3112 54.9085 18.483 53.7215Z" fill="#252525"/>
<path d="M18.5729 52.0381L21.0397 49.9276C21.311 49.6956 21.3454 49.2845 21.1163 49.0097L21.0555 48.9369C20.8264 48.6621 20.4206 48.6273 20.1493 48.8597L17.6824 50.9701L18.5729 52.0381Z" fill="#252525"/>
<path d="M17.901 49.2315V46.0547C17.901 45.6949 17.6132 45.4033 17.258 45.4033H17.1639C16.8087 45.4033 16.5209 45.6949 16.5209 46.0547V49.2315C16.5209 49.2832 16.5623 49.3255 16.6137 49.3255H17.8085C17.8596 49.3252 17.901 49.2832 17.901 49.2315Z" fill="#252525"/>
<path d="M16.3606 49.1672L15.6759 46.0669C15.5983 45.7159 15.2544 45.4949 14.9079 45.5733L14.8161 45.594C14.4696 45.6726 14.2515 46.0207 14.3288 46.372L15.0135 49.4723C15.0248 49.523 15.0743 49.5549 15.1244 49.5435L16.2906 49.2793C16.3404 49.2681 16.3718 49.2179 16.3606 49.1672Z" fill="#252525"/>
<path d="M14.8498 49.5948L13.2818 46.8436C13.1044 46.5319 12.7109 46.4252 12.4034 46.6052L12.3219 46.6527C12.0142 46.8327 11.9091 47.231 12.0865 47.5428L13.6546 50.2939C13.6802 50.3388 13.7369 50.3542 13.7812 50.3284L14.816 49.7233C14.8603 49.6973 14.8755 49.6399 14.8498 49.5948Z" fill="#252525"/>
<path d="M82.1453 92.6156L85.4491 91.1921L75.9131 68.4814L72.6093 69.9049L82.1453 92.6156Z" fill="white"/>
<path d="M76.3877 70.6491C78.1358 68.5589 77.8802 65.4288 75.8167 63.658C73.7532 61.8871 70.6633 62.1461 68.9152 64.2364C67.167 66.3266 67.4227 69.4567 69.4861 71.2275C71.5496 72.9983 74.6395 72.7394 76.3877 70.6491Z" fill="#252525"/>
<path d="M72.6575 72.4177C72.1718 72.4177 71.6837 72.3439 71.2064 72.1944C69.955 71.8035 68.9285 70.9422 68.3165 69.7693C67.7044 68.5965 67.5799 67.2523 67.966 65.9842C68.3521 64.7165 69.2022 63.677 70.3603 63.057C71.5186 62.4372 72.8452 62.3108 74.0966 62.7022C75.348 63.0931 76.3745 63.9545 76.9863 65.1273C77.5983 66.3002 77.7229 67.6445 77.3367 68.9124C76.9506 70.1801 76.1006 71.2199 74.9425 71.8396C74.2264 72.2231 73.4455 72.4177 72.6575 72.4177ZM72.6452 62.4925C71.8596 62.4925 71.0806 62.6863 70.3663 63.0689C69.2116 63.6871 68.3637 64.724 67.9786 65.9884C67.5935 67.2529 67.7178 68.5933 68.328 69.7632C68.9385 70.9329 69.9618 71.7921 71.2101 72.1819C72.4586 72.5717 73.7821 72.4461 74.9365 71.8277C76.0914 71.2095 76.9394 70.1727 77.3244 68.9082C77.7092 67.6437 77.585 66.3031 76.9747 65.1334C76.3643 63.9638 75.3409 63.1045 74.0924 62.7147C73.6167 62.5663 73.1296 62.4925 72.6452 62.4925Z" fill="#252525"/>
<path d="M82.5721 82.2746C83.1152 80.295 81.9713 78.244 80.017 77.6938C78.0627 77.1435 76.0381 78.3023 75.4949 80.282C74.9517 82.2617 76.0956 84.3126 78.0499 84.8629C80.0042 85.4131 82.0289 84.2543 82.5721 82.2746Z" fill="#252525"/>
<path d="M87.4101 91.8901C86.8853 90.2977 85.1857 89.4377 83.6138 89.9692C82.0418 90.5008 81.1928 92.2225 81.7175 93.8149C82.2423 95.4073 83.9419 96.2674 85.5139 95.7358C87.0859 95.2042 87.9346 93.4825 87.4101 91.8901Z" fill="#252525"/>
<path d="M34.9065 61.7713C34.9065 61.7713 35.2598 96.591 54.5499 97.2721C73.84 97.9532 74.6484 62.0203 74.6484 61.7713C74.6484 61.7713 72.3703 56.5783 54.7774 56.7817C37.1846 56.9848 34.9065 61.7713 34.9065 61.7713Z" fill="white"/>
<path d="M45.7445 55.6405H62.0495C63.1135 55.6405 63.9761 54.7669 63.9761 53.6889V53.4032C63.9761 52.3254 63.1137 51.4515 62.0495 51.4515H45.7445C44.6805 51.4515 43.8179 52.3251 43.8179 53.4032V53.6889C43.8181 54.7669 44.6805 55.6405 45.7445 55.6405Z" fill="#252525"/>
<path d="M53.1975 24.6775H54.6051V17.4673H53.1975V24.6775Z" fill="#252525"/>
<path d="M75.4288 46.1347C77.6512 45.5995 79.0245 43.3406 78.4962 41.0893C77.9678 38.8381 75.7379 37.447 73.5155 37.9822C71.2931 38.5174 69.9198 40.7763 70.4482 43.0275C70.9765 45.2788 73.2064 46.6699 75.4288 46.1347Z" fill="white"/>
<path d="M33.6283 45.8652C35.8559 45.3534 37.2522 43.1091 36.7469 40.8526C36.2416 38.596 34.0261 37.1816 31.7985 37.6935C29.5708 38.2053 28.1746 40.4496 28.6799 42.7061C29.1851 44.9627 31.4006 46.3771 33.6283 45.8652Z" fill="white"/>
<path d="M53.08 23.1142C53.08 23.1142 36.2623 22.9095 33.5998 37.665C30.9374 52.4207 45.1601 52.6961 49.2506 52.9757C51.1056 53.1024 55.074 53.1154 58.5757 53.054C66.3283 52.9175 71.8062 51.3977 73.6705 44.1118C73.8878 43.2621 74.0346 42.3898 74.0894 41.5024C74.5824 33.5166 69.2461 22.7212 53.08 23.1142Z" fill="white"/>
<path d="M65.2804 45.5881L40.8474 45.9744C38.2864 46.0151 36.1779 43.9447 36.1378 41.3505C36.0979 38.7563 38.1415 36.6203 40.7024 36.58L65.1354 36.1936C67.6964 36.153 69.8049 38.2233 69.8448 40.8176C69.8851 43.4115 67.8414 45.5475 65.2804 45.5881Z" fill="#252525"/>
<path d="M45.9176 40.8381C45.7595 41.6551 44.9776 42.1877 44.171 42.0276C43.3645 41.8675 42.8387 41.0754 42.9967 40.2584C43.1548 39.4414 43.937 38.9087 44.7435 39.0688C45.5498 39.2289 46.0756 40.021 45.9176 40.8381Z" fill="white"/>
<path d="M62.9869 40.5624C62.8289 41.3795 62.0469 41.9121 61.2404 41.752C60.4338 41.5919 59.908 40.7998 60.0661 39.9828C60.2241 39.1657 61.006 38.6331 61.8126 38.7932C62.6192 38.953 63.145 39.7451 62.9869 40.5624Z" fill="white"/>
<path d="M60.5306 75.5996C60.2629 79.3107 57.076 82.099 53.4125 81.8279C49.7491 81.5566 46.9962 78.3285 47.2641 74.6174C47.532 70.9064 50.7187 68.1181 54.3821 68.3892C58.0456 68.6606 60.7982 71.8886 60.5306 75.5996Z" fill="#252525"/>
<path d="M58.7313 75.4663C58.5363 78.1705 56.2138 80.2026 53.5443 80.0047C50.8749 79.8069 48.8688 77.4546 49.0641 74.7504C49.2594 72.0463 51.5815 70.0144 54.251 70.212C56.9203 70.4098 58.9263 72.7621 58.7313 75.4663Z" fill="white"/>
<path d="M56.3936 76.3588C56.375 76.3474 56.3608 76.0566 56.3488 75.549C56.3367 75.041 56.3267 74.3177 56.3259 73.4335L56.3794 73.5307C55.6536 73.1018 54.8085 72.6024 53.8858 72.0575L54.025 72.0596C53.2426 72.5049 52.3943 72.9879 51.5089 73.4919C51.4407 73.6069 51.6006 73.3358 51.5841 73.3639V73.3647V73.366V73.3689V73.3751L51.5838 73.387L51.5836 73.4112L51.5828 73.4592L51.5815 73.5553L51.5786 73.7465L51.5726 74.1254C51.5684 74.3766 51.5644 74.6246 51.5602 74.8692C51.5511 75.357 51.5421 75.8307 51.5335 76.2874L51.4656 76.1642C52.377 76.7282 53.2077 77.2422 53.9291 77.6886L53.8192 77.687C54.588 77.268 55.2213 76.9337 55.6685 76.7035C56.1157 76.473 56.375 76.3477 56.3936 76.3588C56.4122 76.37 56.1886 76.5179 55.7639 76.7805C55.3393 77.0428 54.7123 77.4209 53.9264 77.8808L53.8727 77.9122L53.8166 77.879C53.0866 77.4478 52.2457 76.951 51.323 76.4058L51.2543 76.3652L51.2551 76.2823C51.2596 75.8256 51.2643 75.3519 51.2693 74.8642C51.2724 74.6196 51.2753 74.3716 51.2785 74.1207L51.2837 73.7418L51.2863 73.5506L51.2876 73.4545L51.2884 73.4064L51.2887 73.3825L51.2889 73.3703V73.3642V73.3612V73.3597V73.3589C51.2724 73.3865 51.4326 73.1148 51.365 73.2298C52.2533 72.7311 53.1044 72.2535 53.8895 71.8127L53.9608 71.7726L54.0287 71.8145C54.9401 72.3785 55.775 72.8952 56.4921 73.3389L56.5474 73.3732L56.5456 73.4361C56.5189 74.3551 56.4877 75.0936 56.4612 75.5967C56.4345 76.1007 56.4122 76.3702 56.3936 76.3588Z" fill="white"/>
<path d="M55.541 18.9855C56.4471 18.0677 56.4471 16.5796 55.541 15.6618C54.635 14.744 53.166 14.744 52.26 15.6618C51.3539 16.5796 51.3539 18.0677 52.26 18.9855C53.166 19.9033 54.635 19.9033 55.541 18.9855Z" fill="white"/>
<path d="M50.1959 40.1429C50.3065 40.1548 50.2514 40.6822 50.5762 41.3832C50.7332 41.7313 50.9945 42.1118 51.3662 42.4352C51.7351 42.7589 52.2263 43.0071 52.7644 43.0637C53.3041 43.107 53.8315 42.953 54.2522 42.7023C54.6756 42.4527 55.0009 42.1264 55.2174 41.8128C55.6622 41.183 55.7023 40.6546 55.8132 40.6628C55.8565 40.6636 55.9018 40.7969 55.9018 41.0462C55.9034 41.2953 55.8321 41.6593 55.631 42.0645C55.4323 42.4692 55.0855 42.9025 54.5862 43.2421C54.0923 43.5812 53.4221 43.8117 52.7023 43.7522C51.9841 43.6787 51.3665 43.329 50.9413 42.9049C50.5109 42.4793 50.2475 41.9896 50.1243 41.5552C49.9993 41.12 49.994 40.7485 50.0401 40.504C50.085 40.2584 50.1531 40.1357 50.1959 40.1429Z" fill="white"/>
<path d="M72.5882 47.0236C72.5635 47.0092 72.865 46.5456 73.1551 45.7089C73.4529 44.8767 73.7127 43.672 73.8372 42.3247C73.9701 40.9766 73.9499 39.7462 73.9158 38.8593C73.8954 38.4156 73.8749 38.0563 73.8553 37.8086C73.8377 37.5606 73.8325 37.4225 73.8419 37.4215C73.8513 37.4204 73.8744 37.5561 73.9082 37.8033C73.9441 38.05 73.9795 38.4092 74.0123 38.854C74.0713 39.743 74.1069 40.9804 73.9732 42.3383C73.8479 43.6951 73.5706 44.9099 73.2458 45.7429C73.088 46.1611 72.9253 46.4853 72.8007 46.7007C72.6713 46.9139 72.5963 47.0286 72.5882 47.0236Z" fill="#252525"/>
<path d="M33.6379 37.183C33.6468 37.186 33.6167 37.3211 33.5548 37.562C33.5223 37.682 33.4846 37.8293 33.4502 38.0027C33.4146 38.1756 33.3648 38.3705 33.3323 38.5903C33.2502 39.0266 33.1866 39.5524 33.148 40.1376C33.1181 40.7234 33.1187 41.3691 33.1748 42.0438C33.2369 42.7183 33.3485 43.3542 33.4799 43.9256C33.6193 44.4949 33.7737 45.001 33.9302 45.4161C34.0005 45.6266 34.0833 45.8096 34.1486 45.9734C34.2125 46.138 34.2754 46.2761 34.3281 46.3884C34.4309 46.6144 34.4841 46.7421 34.4757 46.7466C34.4673 46.7511 34.3984 46.6322 34.2804 46.4123C34.2201 46.3032 34.1499 46.1675 34.0788 46.005C34.0065 45.843 33.9168 45.6617 33.8403 45.4514C33.671 45.0374 33.5056 44.53 33.3577 43.9562C33.2183 43.3808 33.1014 42.7379 33.0387 42.0563C32.9821 41.3742 32.9852 40.721 33.0225 40.1296C33.0681 39.5388 33.1428 39.0094 33.2374 38.572C33.2765 38.3516 33.3331 38.1567 33.3761 37.9847C33.4177 37.8121 33.4634 37.666 33.5037 37.5476C33.5816 37.3094 33.6288 37.1799 33.6379 37.183Z" fill="#252525"/>
<path d="M34.8262 61.7403C34.8269 61.7381 34.8613 61.7482 34.9273 61.7703C34.9994 61.795 35.0961 61.8284 35.2193 61.8709C35.482 61.9646 35.8574 62.0987 36.3373 62.2703C36.5803 62.3581 36.8495 62.4556 37.1436 62.5618C37.4403 62.6622 37.7677 62.757 38.1166 62.8669C38.817 63.0777 39.6052 63.3504 40.5012 63.5639C40.9468 63.6797 41.4134 63.801 41.8994 63.9272C42.3861 64.0512 42.9009 64.1436 43.4291 64.2599C44.4836 64.5052 45.6278 64.672 46.8276 64.8687C49.2362 65.2001 51.9039 65.4277 54.7105 65.4399C57.5181 65.4282 60.1863 65.2012 62.5955 64.8701C63.7958 64.6733 64.9399 64.5068 65.9945 64.2617C66.5227 64.1457 67.0375 64.0533 67.5242 63.9293C68.0102 63.8032 68.4771 63.6818 68.9224 63.566C69.8184 63.3526 70.6066 63.0801 71.307 62.8693C71.6559 62.7594 71.983 62.6648 72.28 62.5642C72.5741 62.458 72.8436 62.3605 73.0863 62.2726C73.5662 62.1014 73.9413 61.9673 74.204 61.8736C74.3272 61.8311 74.4239 61.7979 74.496 61.7729C74.5621 61.7509 74.5964 61.7408 74.5972 61.7432C74.598 61.7453 74.5655 61.7599 74.501 61.7862C74.4302 61.8141 74.3351 61.8518 74.2137 61.8996C73.9529 61.9992 73.5804 62.1415 73.1038 62.3234C72.8619 62.4147 72.5935 62.5159 72.3004 62.6266C72.0045 62.731 71.6779 62.8292 71.3298 62.9429C70.6304 63.1609 69.843 63.4405 68.9471 63.6603C68.5014 63.779 68.0346 63.9033 67.5484 64.0328C67.0613 64.1598 66.546 64.2551 66.0173 64.3738C64.9614 64.6245 63.8154 64.7955 62.613 64.9962C60.1994 65.335 57.5247 65.5663 54.7102 65.578C51.8968 65.5658 49.2226 65.3339 46.8095 64.9946C45.6074 64.7939 44.4614 64.6226 43.4055 64.3719C42.8766 64.2532 42.3615 64.1579 41.8744 64.0307C41.3882 63.9011 40.9214 63.7769 40.4757 63.6579C39.5798 63.4381 38.7924 63.1582 38.093 62.9402C37.7449 62.8265 37.4183 62.728 37.1224 62.6237C36.8293 62.513 36.5609 62.4118 36.319 62.3205C35.8424 62.1386 35.4699 61.9962 35.2091 61.8964C35.0878 61.8486 34.9926 61.8109 34.9218 61.783C34.8579 61.757 34.8251 61.7424 34.8262 61.7403Z" fill="#252525"/>
<g opacity="0.3">
<path d="M34.9065 61.7714C34.9065 61.7714 37.1846 56.9849 54.7774 56.7818C72.3703 56.5787 74.6484 61.7714 74.6484 61.7714C74.6484 61.7714 56.9022 70.6374 34.9065 61.7714Z" fill="#252525"/>
</g>
<path d="M50.9515 24.218C50.9515 24.2204 50.931 24.2238 50.8909 24.2283C50.8427 24.2328 50.7842 24.2382 50.7132 24.2445C50.5572 24.261 50.3258 24.2658 50.0303 24.3019C49.4382 24.3563 48.5831 24.4745 47.5483 24.7185C46.5134 24.9609 45.3029 25.3536 44.0287 25.9519C42.7548 26.5477 41.4258 27.3648 40.1726 28.4043C38.927 29.454 37.8826 30.621 37.0632 31.775C36.2417 32.929 35.6312 34.0585 35.2001 35.0418C34.767 36.0248 34.4905 36.8524 34.3253 37.4313C34.2344 37.7183 34.1856 37.9475 34.1403 38.0996C34.1204 38.1692 34.1041 38.2263 34.0907 38.2733C34.0787 38.3123 34.0716 38.332 34.0692 38.3314C34.0669 38.3309 34.0698 38.3102 34.0771 38.2701C34.0871 38.222 34.0989 38.1639 34.1135 38.093C34.1505 37.9387 34.1909 37.7069 34.2742 37.4167C34.4242 36.8317 34.6879 35.9958 35.112 35.0022C35.5343 34.0086 36.1398 32.8668 36.9613 31.7009C37.7807 30.5347 38.8302 29.3557 40.0861 28.2978C41.3495 27.2501 42.6908 26.4301 43.9765 25.8364C45.2625 25.2405 46.484 24.855 47.527 24.6234C48.5703 24.3903 49.4309 24.2865 50.0261 24.2482C50.3231 24.2204 50.5556 24.2241 50.7124 24.2166C50.784 24.2156 50.8427 24.2148 50.8909 24.214C50.9307 24.2143 50.9515 24.2156 50.9515 24.218Z" fill="white"/>
<path d="M34.4953 44.6585C34.4796 44.6651 34.3782 44.4667 34.2563 44.1282C34.1341 43.7902 33.9989 43.309 33.9142 42.765C33.8306 42.2206 33.8141 41.7204 33.8282 41.3608C33.8421 41.0008 33.8788 40.7807 33.8958 40.782C33.9388 40.7838 33.8793 41.6707 34.0492 42.7435C34.2112 43.8173 34.5354 44.6433 34.4953 44.6585Z" fill="white"/>
<path d="M30.0843 43.2865C30.0778 43.2921 30.0248 43.2435 29.9425 43.1434C29.86 43.0435 29.7525 42.8877 29.6461 42.6795C29.4322 42.2682 29.2466 41.6145 29.3402 40.8949C29.4351 40.1753 29.7826 39.593 30.0948 39.2523C30.2511 39.0794 30.395 38.9573 30.5003 38.8827C30.6057 38.8078 30.6694 38.7749 30.6741 38.7818C30.6893 38.8017 30.4532 38.9637 30.168 39.316C29.8836 39.6628 29.5659 40.2268 29.4754 40.9129C29.3863 41.5988 29.5475 42.2273 29.7328 42.6373C29.9176 43.0523 30.104 43.2714 30.0843 43.2865Z" fill="white"/>
<path d="M54.0547 15.6857C54.0489 15.7117 53.8154 15.6246 53.4379 15.6703C53.0699 15.7093 52.5406 15.9244 52.2266 16.4127C51.9189 16.9053 51.9464 17.4823 52.0644 17.8376C52.1805 18.2045 52.3558 18.3832 52.3349 18.3994C52.3291 18.405 52.2803 18.3668 52.2083 18.2818C52.1357 18.1971 52.0465 18.0588 51.9734 17.8702C51.825 17.5035 51.7739 16.8803 52.1118 16.3381C52.4578 15.8015 53.0382 15.5891 53.4292 15.5731C53.629 15.5622 53.7902 15.5867 53.8964 15.6183C54.0028 15.6491 54.0573 15.678 54.0547 15.6857Z" fill="white"/>
<path d="M76.8987 40.0659C76.8701 40.0972 76.4623 39.7029 75.8463 39.4042C75.2331 39.0988 74.6751 39.0183 74.6816 38.9764C74.6806 38.9424 75.2672 38.9628 75.9058 39.2799C76.5467 39.5914 76.926 40.0454 76.8987 40.0659Z" fill="white"/>
<path d="M40.9563 86.5519C40.9542 86.553 40.9429 86.5357 40.923 86.5007C40.8997 86.4582 40.8716 86.4067 40.8373 86.344C40.7592 86.1943 40.653 85.9911 40.519 85.7352C40.4506 85.6011 40.3754 85.4534 40.2934 85.2928C40.2173 85.1268 40.135 84.9476 40.047 84.7554C39.8685 84.3703 39.6677 83.9309 39.4726 83.4333C39.3722 83.1853 39.2671 82.9261 39.1578 82.6561C39.0577 82.3818 38.9536 82.0969 38.8456 81.8019C38.6205 81.2148 38.4296 80.5703 38.2047 79.9001C37.794 78.5475 37.3908 77.0452 37.037 75.4517C36.6907 73.8562 36.4254 72.3227 36.2165 70.9236C36.0236 69.5222 35.8708 68.2572 35.7869 67.1903C35.7358 66.6579 35.7051 66.1749 35.6789 65.7508C35.6495 65.3271 35.6299 64.9617 35.6215 64.6624C35.6121 64.373 35.6045 64.1433 35.5989 63.9742C35.5979 63.9025 35.5971 63.8438 35.5966 63.795C35.5969 63.7546 35.5982 63.7339 35.6005 63.7339C35.6029 63.7339 35.6063 63.7543 35.6107 63.7944C35.6149 63.843 35.6202 63.9014 35.6267 63.9729C35.6385 64.1417 35.6545 64.3706 35.6747 64.6595C35.6915 64.958 35.7187 65.3223 35.7554 65.7453C35.789 66.1683 35.8262 66.6502 35.8834 67.1813C35.9793 68.2452 36.1418 69.507 36.3413 70.9048C36.5565 72.3001 36.8252 73.8296 37.1704 75.4215C37.5235 77.0112 37.9219 78.5106 38.3251 79.8619C38.546 80.531 38.7321 81.1755 38.9523 81.7626C39.0572 82.0578 39.1586 82.343 39.2561 82.6173C39.3623 82.8876 39.4645 83.1476 39.562 83.3959C39.7508 83.8948 39.945 84.3356 40.1164 84.7227C40.2006 84.916 40.2792 85.0968 40.3521 85.2638C40.4302 85.4264 40.5017 85.5753 40.5668 85.7107C40.6907 85.9715 40.7893 86.1783 40.8619 86.3307C40.8915 86.3961 40.9156 86.4494 40.9356 86.4938C40.9513 86.5312 40.9584 86.5509 40.9563 86.5519Z" fill="white"/>
<path d="M30.6879 64.9045C30.6853 64.9425 29.8276 64.9117 28.7726 64.8358C27.7172 64.7596 26.864 64.6669 26.8666 64.6289C26.8693 64.591 27.7267 64.6218 28.7823 64.698C29.8373 64.7739 30.6908 64.8666 30.6879 64.9045Z" fill="white"/>
<path d="M20.8269 59.2353C20.7939 59.2536 20.3472 58.4833 19.8293 57.5152C19.3113 56.5468 18.9184 55.7473 18.9517 55.7289C18.9847 55.7109 19.4314 56.4809 19.9493 57.4493C20.467 58.4174 20.86 59.2172 20.8269 59.2353Z" fill="white"/>
<path d="M50.2505 94.924C50.2489 94.9333 50.1399 94.9195 49.9433 94.886C49.7464 94.8558 49.4652 94.7886 49.1236 94.6856C48.781 94.5847 48.3831 94.4312 47.9545 94.2304C47.5294 94.0233 47.0754 93.765 46.6277 93.4495C46.1828 93.1296 45.7894 92.7841 45.4528 92.4487C45.1212 92.1081 44.8441 91.7807 44.6344 91.4883C44.4232 91.1976 44.2656 90.9522 44.1707 90.7748C44.0732 90.5988 44.0234 90.4998 44.0316 90.495C44.0538 90.4814 44.273 90.868 44.7107 91.4288C44.9278 91.7106 45.209 92.0271 45.5409 92.3582C45.8777 92.684 46.2678 93.0212 46.706 93.3367C47.1472 93.6476 47.5923 93.9052 48.0088 94.116C48.4285 94.3202 48.8177 94.4811 49.153 94.5926C49.8222 94.8202 50.2555 94.8983 50.2505 94.924Z" fill="white"/>
<path d="M54.2721 82.6399C54.2723 82.6447 54.2092 82.6511 54.0883 82.6591C53.9675 82.6614 53.7887 82.6883 53.5588 82.6745C53.0988 82.6734 52.4283 82.5985 51.6367 82.3585C51.2403 82.2408 50.8209 82.0651 50.3848 81.8484C49.9575 81.6153 49.5077 81.3471 49.083 80.9968C48.2251 80.3131 47.4288 79.3535 46.9147 78.1796C46.4185 76.9972 46.2702 75.7524 46.3627 74.6504C46.4002 74.0968 46.514 73.5809 46.6374 73.1053C46.7787 72.6345 46.9383 72.2041 47.1242 71.8305C47.4914 71.0809 47.8954 70.5336 48.2086 70.1924C48.3556 70.0127 48.4972 69.8988 48.5813 69.8111C48.6694 69.727 48.7171 69.6847 48.7205 69.6882C48.731 69.6988 48.5462 69.8764 48.249 70.2277C47.9501 70.5772 47.563 71.1276 47.2115 71.873C47.0335 72.2444 46.8815 72.6711 46.7467 73.1366C46.6298 73.6066 46.5218 74.1154 46.4885 74.6605C46.4041 75.7457 46.5546 76.9664 47.0403 78.1249C47.5441 79.2749 48.3218 80.2194 49.1619 80.8978C49.5777 81.2451 50.0186 81.5125 50.4372 81.747C50.8647 81.965 51.2763 82.1437 51.6658 82.2658C52.4435 82.5143 53.1046 82.6036 53.5609 82.6211C54.017 82.6405 54.2716 82.6251 54.2721 82.6399Z" fill="white"/>
<path d="M22.5363 61.7297C22.5253 61.752 22.3337 61.653 22.0029 61.5768C21.6736 61.499 21.1981 61.4695 20.6954 61.59C20.1932 61.7135 19.7827 61.9586 19.5239 62.1792C19.2634 62.3991 19.1368 62.5754 19.1171 62.5606C19.1059 62.5542 19.2055 62.3542 19.46 62.106C19.7114 61.8577 20.1365 61.5847 20.6634 61.4557C21.1905 61.3288 21.6917 61.3768 22.027 61.4822C22.3649 61.5863 22.5434 61.7188 22.5363 61.7297Z" fill="white"/>
<path d="M61.243 35.3286C61.243 35.3668 58.0246 35.3976 54.0555 35.3976C50.0849 35.3976 46.8673 35.3665 46.8673 35.3286C46.8673 35.2903 50.0849 35.2595 54.0555 35.2595C58.0246 35.2593 61.243 35.2903 61.243 35.3286Z" fill="white"/>
<path d="M48.9774 51.9314C48.9777 51.9362 48.936 51.9428 48.8558 51.9513C48.7596 51.9598 48.644 51.9699 48.5051 51.9818C48.3528 51.9951 48.1661 52.0073 47.9488 52.0108C47.7318 52.0156 47.4844 52.028 47.211 52.0196C46.6639 52.0182 46.0128 51.9802 45.2932 51.903C44.5748 51.818 43.7881 51.689 42.9745 51.4978C42.1616 51.301 41.4009 51.0607 40.7202 50.8119C40.0421 50.5557 39.4426 50.2955 38.9527 50.0493C38.7042 49.9335 38.4885 49.8103 38.2963 49.7081C38.1034 49.6069 37.9419 49.5116 37.8114 49.4309C37.6924 49.3573 37.5936 49.296 37.511 49.245C37.4431 49.2012 37.4088 49.1763 37.4111 49.1723C37.4135 49.168 37.4525 49.185 37.5249 49.2211C37.6106 49.2657 37.7136 49.3194 37.8371 49.3839C37.9713 49.4572 38.1359 49.5453 38.3314 49.6396C38.5262 49.7349 38.744 49.8515 38.9938 49.9612C39.4869 50.1948 40.0866 50.4442 40.7629 50.6922C41.4416 50.9327 42.1983 51.1677 43.0057 51.3632C43.8141 51.553 44.5944 51.685 45.3077 51.7763C46.022 51.86 46.6686 51.9078 47.2128 51.9218C47.4846 51.9367 47.731 51.9309 47.9473 51.9335C48.1638 51.9375 48.3499 51.933 48.5022 51.9282C48.6414 51.9263 48.7572 51.9248 48.8534 51.9237C48.9347 51.924 48.9772 51.9266 48.9774 51.9314Z" fill="white"/>
<path d="M69.9009 63.8983C69.9017 63.9007 69.8805 63.9102 69.8383 63.9272C69.7885 63.9461 69.7263 63.9697 69.6498 63.9989C69.4731 64.0626 69.2293 64.1505 68.9206 64.2618C68.6042 64.3773 68.2152 64.5122 67.7567 64.6484C67.2993 64.7873 66.7824 64.9601 66.1989 65.1075C65.9079 65.1856 65.6036 65.2671 65.2864 65.3521C64.9687 65.4357 64.634 65.5047 64.2896 65.5857C63.602 65.7546 62.8576 65.8871 62.0762 66.0366C60.5082 66.3045 58.7718 66.5289 56.9398 66.6489C55.1065 66.757 53.3555 66.7498 51.7668 66.6781C50.9731 66.6269 50.2181 66.5873 49.5154 66.5053C49.1639 66.4675 48.8231 66.4405 48.4978 66.3969C48.1728 66.352 47.8608 66.3088 47.5626 66.2676C46.9657 66.1938 46.4317 66.086 45.961 66.005C45.4897 65.9267 45.0873 65.8409 44.7594 65.7655C44.4396 65.6933 44.1872 65.6364 44.0039 65.595C43.9245 65.5756 43.86 65.56 43.8084 65.5472C43.7643 65.5358 43.7423 65.5286 43.7429 65.5262C43.7434 65.5239 43.7667 65.5262 43.8115 65.5334C43.8642 65.5424 43.9292 65.5539 44.01 65.5677C44.1942 65.6027 44.4482 65.6513 44.7699 65.7127C45.0991 65.7798 45.5022 65.8576 45.9741 65.9288C46.4454 66.0023 46.9791 66.1032 47.5757 66.1707C47.8734 66.2092 48.1854 66.2493 48.5099 66.291C48.8349 66.3319 49.1749 66.3558 49.5259 66.3911C50.2276 66.4681 50.9807 66.5031 51.7726 66.5509C53.3574 66.6154 55.1031 66.6189 56.9312 66.5111C58.7579 66.3913 60.4898 66.1715 62.0547 65.9113C62.8345 65.7658 63.5779 65.6378 64.2649 65.4742C64.6091 65.3956 64.9436 65.3295 65.2613 65.2488C65.5785 65.167 65.883 65.0884 66.174 65.0135C66.758 64.8725 67.2757 64.7063 67.7344 64.5749C68.1942 64.4458 68.585 64.3186 68.9038 64.2111C69.2157 64.1102 69.4621 64.0308 69.6406 63.9732C69.719 63.9493 69.7824 63.9301 69.8335 63.9145C69.8776 63.9015 69.9001 63.8962 69.9009 63.8983Z" fill="white"/>
</g>
</svg>
