<svg width="57" height="12" viewBox="0 0 57 12" fill="none" xmlns="http://www.w3.org/2000/svg">
<path fill-rule="evenodd" clip-rule="evenodd" d="M12.2141 4.29844V11.9744H14.4205V4.29844H12.2141ZM15.8652 4.29844V11.9744H18.0191V7.77819L21.3813 12H23.2988V4.29844H21.1449V8.36668L17.8878 4.29844H15.8652ZM24.691 12V4.29844H26.8712V7.41998L29.603 4.29844H32.2034L29.2089 7.62467L32.2822 12H29.6555L27.6854 9.13427L26.8712 10.0042V12C26.8974 12 24.691 12 24.691 12ZM32.9389 4.29844V11.9744H39.3481V10.1833H35.1191V8.95517H38.9015V7.26646H35.1191V6.08949H39.2955V4.29844H32.9389ZM40.4513 12V4.29844H44.1812C45.337 4.29844 46.1775 4.57989 46.7554 5.1172C47.2282 5.57776 47.4646 6.16624 47.4646 6.93384C47.4646 8.05964 46.913 8.85282 45.836 9.28779L47.7273 11.9744H45.2056L43.6296 9.646H42.684V11.9744L40.4513 12ZM42.6315 8.00847H44.0761C44.4439 8.00847 44.7328 7.93171 44.943 7.7526C45.1531 7.5735 45.2582 7.36881 45.2582 7.06177C45.2582 6.75473 45.1531 6.52445 44.943 6.37094C44.7328 6.21742 44.4439 6.14066 44.0761 6.14066H42.6577L42.6315 8.00847ZM47.9374 10.7718C48.883 11.5906 50.0913 12 51.536 12C52.4816 12 53.2434 11.7953 53.795 11.3603C54.3466 10.9253 54.6355 10.3368 54.6355 9.59483C54.6355 8.92958 54.3991 8.44344 53.9263 8.08523C53.4535 7.72702 52.7443 7.47115 51.7724 7.26646C51.2471 7.16412 50.8793 7.03618 50.7217 6.95942C50.5641 6.88267 50.4591 6.72915 50.4591 6.55004C50.4591 6.39652 50.5379 6.26859 50.6692 6.19183C50.8005 6.08949 50.9844 6.0639 51.2471 6.0639C51.9563 6.0639 52.6918 6.29418 53.401 6.78032L54.4779 5.34748C53.6374 4.68223 52.5604 4.37519 51.2996 4.37519C50.3803 4.37519 49.6711 4.60547 49.1194 5.04044C48.5678 5.47541 48.3052 6.03831 48.3052 6.75473C48.3052 7.11294 48.384 7.44557 48.5153 7.70143C48.6466 7.95729 48.8568 8.18757 49.172 8.36668C49.4609 8.54578 49.7499 8.67371 50.0651 8.77606C50.354 8.87841 50.748 8.98075 51.2208 9.0831C51.7462 9.18544 52.0876 9.31338 52.2452 9.41572C52.4291 9.51807 52.5079 9.646 52.5079 9.79952C52.5079 10.1577 52.219 10.3368 51.6411 10.3368C50.748 10.3368 49.9075 10.0554 49.1457 9.44131C49.1457 9.41572 47.9374 10.7718 47.9374 10.7718Z" fill="#24262F"/>
<path d="M57 10.4392H55.3977V12H57V10.4392Z" fill="url(#paint0_linear_35_1104)"/>
<path d="M0 6.98516C0 6.98516 0.998152 6.98516 0.998152 8.16214C0.998152 9.33911 0.998152 11.8466 0.998152 11.8466V11.9745H4.25528V3.65893L0 6.01288V6.98516Z" fill="url(#paint1_linear_35_1104)"/>
<path d="M2.44282 3.5821C3.46723 3.5821 4.28152 2.78892 4.28152 1.79105C4.28152 0.793179 3.46723 0 2.44282 0C1.4184 0 0.604115 0.793179 0.604115 1.79105C0.604115 2.78892 1.4184 3.5821 2.44282 3.5821Z" fill="url(#paint2_linear_35_1104)"/>
<path d="M9.77119 0.588531L8.51037 1.27936L5.41084 3.01924V3.88918C6.7242 3.88918 6.54033 5.09174 6.54033 5.09174V5.14291L9.77119 3.01924V0.588531Z" fill="#24262F"/>
<path d="M9.77119 0.588531L8.51037 1.27936L5.41084 3.01924V3.88918C6.7242 3.88918 6.54033 5.09174 6.54033 5.09174V5.14291L9.77119 3.01924V0.588531Z" fill="#24262F"/>
<path d="M9.77117 4.29857V3.096L6.54031 5.19409V8.90412C6.54031 10.1834 7.3546 11.2837 8.51035 11.7442C8.90436 11.8977 9.32463 11.9745 9.74491 11.9745V6.08962L11.6099 4.29857H9.77117Z" fill="#24262F"/>
<path d="M9.77117 2.37958L6.54031 2.50751V6.03844H9.77117V2.37958Z" fill="#24262F"/>
<defs>
<linearGradient id="paint0_linear_35_1104" x1="0.288686" y1="16.0232" x2="6.275" y2="-31.9617" gradientUnits="userSpaceOnUse">
<stop stop-color="#FF0069"/>
<stop offset="0.5155" stop-color="#7644A9"/>
<stop offset="1" stop-color="#19EEE6"/>
</linearGradient>
<linearGradient id="paint1_linear_35_1104" x1="33.2163" y1="11.0703" x2="32.0594" y2="-38.0984" gradientUnits="userSpaceOnUse">
<stop stop-color="#FF0069"/>
<stop offset="0.5155" stop-color="#7644A9"/>
</linearGradient>
<linearGradient id="paint2_linear_35_1104" x1="37.1392" y1="37.8708" x2="35.7874" y2="-74.6167" gradientUnits="userSpaceOnUse">
<stop stop-color="#FF0069"/>
<stop offset="0.5155" stop-color="#7644A9"/>
<stop offset="1" stop-color="#19EEE6"/>
</linearGradient>
</defs>
</svg>
